<svg width="1728" height="614" viewBox="0 0 1728 614" fill="none" xmlns="http://www.w3.org/2000/svg">
<g clip-path="url(#clip0_468_151)">
<rect width="1731" height="614" transform="translate(-3)" fill="white"/>
<rect x="-3" width="1728" height="614" fill="url(#paint0_linear_468_151)"/>
<circle cx="1432" cy="535.686" r="175" fill="white" fill-opacity="0.36"/>
<circle cx="1330" cy="313.686" r="175" fill="white" fill-opacity="0.36"/>
<circle cx="944" cy="154.686" r="72" fill="white" fill-opacity="0.36"/>
<rect x="442.51" y="69" width="122" height="120" rx="15" transform="rotate(14.9242 442.51 69)" fill="white" fill-opacity="0.19"/>
<rect x="665.512" y="471.594" width="53.5064" height="57.5327" rx="15" transform="rotate(-62.16 665.512 471.594)" fill="white" fill-opacity="0.19"/>
<rect x="908" y="421.999" width="53.5064" height="57.5327" rx="15" transform="rotate(-62.16 908 421.999)" fill="white" fill-opacity="0.19"/>
<circle cx="-32" cy="99" r="175" fill="white" fill-opacity="0.36"/>
<g filter="url(#filter0_d_468_151)">
<rect x="363" y="111" width="997" height="406" rx="59" fill="white"/>
</g>
<path d="M576.72 318.8C572.453 318.8 569.227 317.6 567.04 315.2C564.853 312.747 563.76 309.253 563.76 304.72V301.52H572.08V305.36C572.08 308.987 573.6 310.8 576.64 310.8C578.133 310.8 579.253 310.373 580 309.52C580.8 308.613 581.2 307.173 581.2 305.2C581.2 302.853 580.667 300.8 579.6 299.04C578.533 297.227 576.56 295.067 573.68 292.56C570.053 289.36 567.52 286.48 566.08 283.92C564.64 281.307 563.92 278.373 563.92 275.12C563.92 270.693 565.04 267.28 567.28 264.88C569.52 262.427 572.773 261.2 577.04 261.2C581.253 261.2 584.427 262.427 586.56 264.88C588.747 267.28 589.84 270.747 589.84 275.28V277.6H581.52V274.72C581.52 272.8 581.147 271.413 580.4 270.56C579.653 269.653 578.56 269.2 577.12 269.2C574.187 269.2 572.72 270.987 572.72 274.56C572.72 276.587 573.253 278.48 574.32 280.24C575.44 282 577.44 284.133 580.32 286.64C584 289.84 586.533 292.747 587.92 295.36C589.307 297.973 590 301.04 590 304.56C590 309.147 588.853 312.667 586.56 315.12C584.32 317.573 581.04 318.8 576.72 318.8ZM601.926 270H592.726V262H619.926V270H610.726V318H601.926V270ZM627.314 262H639.234L648.354 318H639.554L637.954 306.88V307.04H627.954L626.354 318H618.194L627.314 262ZM636.914 299.44L632.994 271.76H632.834L628.994 299.44H636.914ZM652.624 262H665.664C670.197 262 673.504 263.067 675.584 265.2C677.664 267.28 678.704 270.507 678.704 274.88V278.32C678.704 284.133 676.784 287.813 672.944 289.36V289.52C675.077 290.16 676.57 291.467 677.424 293.44C678.33 295.413 678.784 298.053 678.784 301.36V311.2C678.784 312.8 678.837 314.107 678.944 315.12C679.05 316.08 679.317 317.04 679.744 318H670.784C670.464 317.093 670.25 316.24 670.144 315.44C670.037 314.64 669.984 313.2 669.984 311.12V300.88C669.984 298.32 669.557 296.533 668.704 295.52C667.904 294.507 666.49 294 664.464 294H661.424V318H652.624V262ZM664.624 286C666.384 286 667.69 285.547 668.544 284.64C669.45 283.733 669.904 282.213 669.904 280.08V275.76C669.904 273.733 669.53 272.267 668.784 271.36C668.09 270.453 666.97 270 665.424 270H661.424V286H664.624ZM691.613 270H682.413V262H709.613V270H700.413V318H691.613V270ZM734.766 294.16L724.126 262H733.486L739.486 282.56H739.646L745.646 262H754.206L743.566 294.16V318H734.766V294.16ZM769.484 318.8C765.164 318.8 761.858 317.573 759.564 315.12C757.271 312.667 756.124 309.2 756.124 304.72V275.28C756.124 270.8 757.271 267.333 759.564 264.88C761.858 262.427 765.164 261.2 769.484 261.2C773.804 261.2 777.111 262.427 779.404 264.88C781.698 267.333 782.844 270.8 782.844 275.28V304.72C782.844 309.2 781.698 312.667 779.404 315.12C777.111 317.573 773.804 318.8 769.484 318.8ZM769.484 310.8C772.524 310.8 774.044 308.96 774.044 305.28V274.72C774.044 271.04 772.524 269.2 769.484 269.2C766.444 269.2 764.924 271.04 764.924 274.72V305.28C764.924 308.96 766.444 310.8 769.484 310.8ZM801.596 318.8C797.329 318.8 794.076 317.6 791.836 315.2C789.596 312.747 788.476 309.253 788.476 304.72V262H797.276V305.36C797.276 307.28 797.649 308.667 798.396 309.52C799.196 310.373 800.316 310.8 801.756 310.8C803.196 310.8 804.289 310.373 805.036 309.52C805.836 308.667 806.236 307.28 806.236 305.36V262H814.716V304.72C814.716 309.253 813.596 312.747 811.356 315.2C809.116 317.6 805.862 318.8 801.596 318.8ZM820.983 262H834.023C838.556 262 841.863 263.067 843.943 265.2C846.023 267.28 847.063 270.507 847.063 274.88V278.32C847.063 284.133 845.143 287.813 841.303 289.36V289.52C843.436 290.16 844.93 291.467 845.783 293.44C846.69 295.413 847.143 298.053 847.143 301.36V311.2C847.143 312.8 847.196 314.107 847.303 315.12C847.41 316.08 847.676 317.04 848.103 318H839.143C838.823 317.093 838.61 316.24 838.503 315.44C838.396 314.64 838.343 313.2 838.343 311.12V300.88C838.343 298.32 837.916 296.533 837.063 295.52C836.263 294.507 834.85 294 832.823 294H829.783V318H820.983V262ZM832.983 286C834.743 286 836.05 285.547 836.903 284.64C837.81 283.733 838.263 282.213 838.263 280.08V275.76C838.263 273.733 837.89 272.267 837.143 271.36C836.45 270.453 835.33 270 833.783 270H829.783V286H832.983ZM866.061 262H879.341C883.875 262 887.181 263.067 889.261 265.2C891.341 267.28 892.381 270.507 892.381 274.88V277.12C892.381 280 891.901 282.347 890.941 284.16C890.035 285.973 888.621 287.28 886.701 288.08V288.24C891.075 289.733 893.261 293.627 893.261 299.92V304.72C893.261 309.04 892.115 312.347 889.821 314.64C887.581 316.88 884.275 318 879.901 318H866.061V262ZM878.301 284.8C880.061 284.8 881.368 284.347 882.221 283.44C883.128 282.533 883.581 281.013 883.581 278.88V275.76C883.581 273.733 883.208 272.267 882.461 271.36C881.768 270.453 880.648 270 879.101 270H874.861V284.8H878.301ZM879.901 310C881.448 310 882.595 309.6 883.341 308.8C884.088 307.947 884.461 306.507 884.461 304.48V299.6C884.461 297.04 884.008 295.28 883.101 294.32C882.248 293.307 880.808 292.8 878.781 292.8H874.861V310H879.901ZM905.205 262H917.125L926.245 318H917.445L915.845 306.88V307.04H905.845L904.245 318H896.085L905.205 262ZM914.805 299.44L910.885 271.76H910.725L906.885 299.44H914.805ZM933.723 270H924.523V262H951.723V270H942.523V318H933.723V270ZM963.644 270H954.444V262H981.644V270H972.444V318H963.644V270ZM985.905 262H994.705V310H1009.19V318H985.905V262ZM1013.41 262H1037.41V270H1022.21V284.8H1034.29V292.8H1022.21V310H1037.41V318H1013.41V262ZM1055.28 262H1066.32L1074.88 295.52H1075.04V262H1082.88V318H1073.84L1063.28 277.12H1063.12V318H1055.28V262ZM1102.14 318.8C1097.82 318.8 1094.51 317.573 1092.22 315.12C1089.93 312.667 1088.78 309.2 1088.78 304.72V275.28C1088.78 270.8 1089.93 267.333 1092.22 264.88C1094.51 262.427 1097.82 261.2 1102.14 261.2C1106.46 261.2 1109.77 262.427 1112.06 264.88C1114.35 267.333 1115.5 270.8 1115.5 275.28V304.72C1115.5 309.2 1114.35 312.667 1112.06 315.12C1109.77 317.573 1106.46 318.8 1102.14 318.8ZM1102.14 310.8C1105.18 310.8 1106.7 308.96 1106.7 305.28V274.72C1106.7 271.04 1105.18 269.2 1102.14 269.2C1099.1 269.2 1097.58 271.04 1097.58 274.72V305.28C1097.58 308.96 1099.1 310.8 1102.14 310.8ZM1119.37 262H1127.85L1131.77 305.04H1131.93L1136.09 262H1145.69L1149.85 305.04H1150.01L1153.93 262H1161.53L1155.85 318H1144.89L1140.89 280.24H1140.73L1136.73 318H1125.05L1119.37 262Z" fill="black"/>
<g filter="url(#filter1_d_468_151)">
<path d="M353.044 62L369.944 99.3681" stroke="white" stroke-width="11" stroke-linecap="round"/>
</g>
<g filter="url(#filter2_d_468_151)">
<path d="M306.245 83.3564L352.221 116.314" stroke="white" stroke-width="11" stroke-linecap="round"/>
</g>
<g filter="url(#filter3_d_468_151)">
<path d="M303 144.284L343.985 142.788" stroke="white" stroke-width="11" stroke-linecap="round"/>
</g>
</g>
<defs>
<filter id="filter0_d_468_151" x="319" y="111" width="1041" height="444" filterUnits="userSpaceOnUse" color-interpolation-filters="sRGB">
<feFlood flood-opacity="0" result="BackgroundImageFix"/>
<feColorMatrix in="SourceAlpha" type="matrix" values="0 0 0 0 0 0 0 0 0 0 0 0 0 0 0 0 0 0 127 0" result="hardAlpha"/>
<feOffset dx="-34" dy="28"/>
<feGaussianBlur stdDeviation="5"/>
<feComposite in2="hardAlpha" operator="out"/>
<feColorMatrix type="matrix" values="0 0 0 0 0 0 0 0 0 0 0 0 0 0 0 0 0 0 0.25 0"/>
<feBlend mode="normal" in2="BackgroundImageFix" result="effect1_dropShadow_468_151"/>
<feBlend mode="normal" in="SourceGraphic" in2="effect1_dropShadow_468_151" result="shape"/>
</filter>
<filter id="filter1_d_468_151" x="336.542" y="56.499" width="38.9033" height="68.3701" filterUnits="userSpaceOnUse" color-interpolation-filters="sRGB">
<feFlood flood-opacity="0" result="BackgroundImageFix"/>
<feColorMatrix in="SourceAlpha" type="matrix" values="0 0 0 0 0 0 0 0 0 0 0 0 0 0 0 0 0 0 127 0" result="hardAlpha"/>
<feOffset dx="-7" dy="16"/>
<feGaussianBlur stdDeviation="2"/>
<feComposite in2="hardAlpha" operator="out"/>
<feColorMatrix type="matrix" values="0 0 0 0 0 0 0 0 0 0 0 0 0 0 0 0 0 0 0.47 0"/>
<feBlend mode="normal" in2="BackgroundImageFix" result="effect1_dropShadow_468_151"/>
<feBlend mode="normal" in="SourceGraphic" in2="effect1_dropShadow_468_151" result="shape"/>
</filter>
<filter id="filter2_d_468_151" x="289.745" y="77.8564" width="67.9766" height="63.958" filterUnits="userSpaceOnUse" color-interpolation-filters="sRGB">
<feFlood flood-opacity="0" result="BackgroundImageFix"/>
<feColorMatrix in="SourceAlpha" type="matrix" values="0 0 0 0 0 0 0 0 0 0 0 0 0 0 0 0 0 0 127 0" result="hardAlpha"/>
<feOffset dx="-7" dy="16"/>
<feGaussianBlur stdDeviation="2"/>
<feComposite in2="hardAlpha" operator="out"/>
<feColorMatrix type="matrix" values="0 0 0 0 0 0 0 0 0 0 0 0 0 0 0 0 0 0 0.47 0"/>
<feBlend mode="normal" in2="BackgroundImageFix" result="effect1_dropShadow_468_151"/>
<feBlend mode="normal" in="SourceGraphic" in2="effect1_dropShadow_468_151" result="shape"/>
</filter>
<filter id="filter3_d_468_151" x="286.5" y="137.287" width="62.9849" height="32.4971" filterUnits="userSpaceOnUse" color-interpolation-filters="sRGB">
<feFlood flood-opacity="0" result="BackgroundImageFix"/>
<feColorMatrix in="SourceAlpha" type="matrix" values="0 0 0 0 0 0 0 0 0 0 0 0 0 0 0 0 0 0 127 0" result="hardAlpha"/>
<feOffset dx="-7" dy="16"/>
<feGaussianBlur stdDeviation="2"/>
<feComposite in2="hardAlpha" operator="out"/>
<feColorMatrix type="matrix" values="0 0 0 0 0 0 0 0 0 0 0 0 0 0 0 0 0 0 0.47 0"/>
<feBlend mode="normal" in2="BackgroundImageFix" result="effect1_dropShadow_468_151"/>
<feBlend mode="normal" in="SourceGraphic" in2="effect1_dropShadow_468_151" result="shape"/>
</filter>
<linearGradient id="paint0_linear_468_151" x1="628" y1="669.818" x2="54.8889" y2="-243.89" gradientUnits="userSpaceOnUse">
<stop stop-color="#FF5C00"/>
<stop offset="1" stop-color="#FFC700"/>
</linearGradient>
<clipPath id="clip0_468_151">
<rect width="1731" height="614" fill="white" transform="translate(-3)"/>
</clipPath>
</defs>
</svg>
