<svg width="243" height="68" viewBox="0 0 243 68" fill="none" xmlns="http://www.w3.org/2000/svg">
<g filter="url(#filter0_d_468_191)">
<g clip-path="url(#clip0_468_191)">
<path d="M34.2632 9.89746H18.5263C10.5037 9.89746 4 16.4011 4 24.4238V41.3711C4 49.3938 10.5037 55.8975 18.5263 55.8975H34.2632C42.2858 55.8975 48.7895 49.3938 48.7895 41.3711V24.4238C48.7895 16.4011 42.2858 9.89746 34.2632 9.89746Z" fill="#FCA701"/>
<path d="M30.9063 34.2859L31.5102 30.2653H27.7336V27.6561C27.7336 26.5561 28.2612 25.4838 29.9526 25.4838H31.6696V22.0607C31.6696 22.0607 30.1115 21.7891 28.6218 21.7891C25.5116 21.7891 23.4788 23.7148 23.4788 27.2009V30.2653H20.0215V34.2859H23.4788V44.0057H27.7336V34.2859H30.9063Z" fill="white"/>
</g>
<g clip-path="url(#clip1_468_191)">
<path d="M93.0527 9.89746H77.3159C69.2932 9.89746 62.7896 16.4011 62.7896 24.4238V41.3711C62.7896 49.3938 69.2932 55.8975 77.3159 55.8975H93.0527C101.075 55.8975 107.579 49.3938 107.579 41.3711V24.4238C107.579 16.4011 101.075 9.89746 93.0527 9.89746Z" fill="#FCA701"/>
<path d="M94.0595 28.183C94.0731 28.3886 94.0731 28.5942 94.0731 28.7998C94.0731 35.0709 89.6122 42.2968 81.459 42.2968C78.9471 42.2968 76.6137 41.5183 74.6509 40.1672C75.0078 40.2113 75.3509 40.2259 75.7215 40.2259C77.794 40.2259 79.7021 39.477 81.2256 38.1993C79.2766 38.1551 77.6432 36.7893 77.0804 34.9094C77.3549 34.9535 77.6294 34.9828 77.9177 34.9828C78.3157 34.9828 78.7138 34.9241 79.0843 34.8213C77.0529 34.3807 75.5293 32.4714 75.5293 30.1656V30.1069C76.1195 30.4594 76.8058 30.6797 77.5333 30.709C76.3391 29.8572 75.5568 28.4032 75.5568 26.7584C75.5568 25.8772 75.7764 25.0694 76.1608 24.3644C78.3432 27.2431 81.6237 29.1229 85.3022 29.3285C85.2336 28.976 85.1924 28.6089 85.1924 28.2417C85.1924 25.6275 87.1689 23.498 89.6259 23.498C90.9024 23.498 92.0554 24.0707 92.8652 24.9961C93.8672 24.7904 94.8279 24.3938 95.6791 23.8504C95.3495 24.952 94.6496 25.8772 93.7299 26.4647C94.6222 26.3619 95.4868 26.0975 96.2829 25.7304C95.6791 26.6702 94.9241 27.5073 94.0595 28.183Z" fill="white"/>
</g>
<g clip-path="url(#clip2_468_191)">
<path d="M151.912 10H135.041C127.054 10 120.579 16.4747 120.579 24.4615V41.3333C120.579 49.3202 127.054 55.7949 135.041 55.7949H151.912C159.899 55.7949 166.374 49.3202 166.374 41.3333V24.4615C166.374 16.4747 159.899 10 151.912 10Z" fill="#FCA701"/>
<path d="M138.321 42.4131H134.369V29.1292H138.321V42.4131ZM136.343 27.3172C135.079 27.3172 134.054 26.2246 134.054 24.9056C134.054 24.272 134.295 23.6643 134.724 23.2164C135.153 22.7683 135.736 22.5166 136.343 22.5166C136.95 22.5166 137.532 22.7683 137.961 23.2164C138.39 23.6643 138.632 24.272 138.632 24.9056C138.632 26.2246 137.606 27.3172 136.343 27.3172ZM153.113 42.4131H149.17V35.9466C149.17 34.4055 149.14 32.4291 147.115 32.4291C145.06 32.4291 144.745 34.1034 144.745 35.8356V42.4131H140.797V29.1292H144.587V30.9412H144.643C145.17 29.8976 146.459 28.7961 148.382 28.7961C152.382 28.7961 153.118 31.5453 153.118 35.1161V42.4131H153.113Z" fill="white"/>
</g>
<g clip-path="url(#clip3_468_191)">
<path d="M209.637 9.89746H193.9C185.878 9.89746 179.374 16.4011 179.374 24.4238V41.3711C179.374 49.3938 185.878 55.8975 193.9 55.8975H209.637C217.66 55.8975 224.163 49.3938 224.163 41.3711V24.4238C224.163 16.4011 217.66 9.89746 209.637 9.89746Z" fill="#FCA701"/>
<path d="M213.213 28.1036C212.945 27.1038 212.156 26.3163 211.154 26.049C209.337 25.5635 202.052 25.5635 202.052 25.5635C202.052 25.5635 194.767 25.5635 192.95 26.049C191.948 26.3163 191.159 27.1038 190.891 28.1036C190.404 29.916 190.404 33.6975 190.404 33.6975C190.404 33.6975 190.404 37.4788 190.891 39.2912C191.159 40.2912 191.948 41.0459 192.95 41.3131C194.767 41.7987 202.052 41.7987 202.052 41.7987C202.052 41.7987 209.337 41.7987 211.154 41.3131C212.156 41.0459 212.945 40.2912 213.213 39.2912C213.7 37.4788 213.7 33.6975 213.7 33.6975C213.7 33.6975 213.7 29.916 213.213 28.1036ZM199.669 37.1307V30.2643L205.758 33.6976L199.669 37.1307Z" fill="white"/>
</g>
</g>
<defs>
<filter id="filter0_d_468_191" x="0" y="0" width="242.164" height="67.7949" filterUnits="userSpaceOnUse" color-interpolation-filters="sRGB">
<feFlood flood-opacity="0" result="BackgroundImageFix"/>
<feColorMatrix in="SourceAlpha" type="matrix" values="0 0 0 0 0 0 0 0 0 0 0 0 0 0 0 0 0 0 127 0" result="hardAlpha"/>
<feOffset dx="7" dy="1"/>
<feGaussianBlur stdDeviation="5"/>
<feComposite in2="hardAlpha" operator="out"/>
<feColorMatrix type="matrix" values="0 0 0 0 0 0 0 0 0 0 0 0 0 0 0 0 0 0 0.25 0"/>
<feBlend mode="normal" in2="BackgroundImageFix" result="effect1_dropShadow_468_191"/>
<feBlend mode="normal" in="SourceGraphic" in2="effect1_dropShadow_468_191" result="shape"/>
</filter>
<clipPath id="clip0_468_191">
<rect width="46.7895" height="46" fill="white" transform="translate(3 9.89746)"/>
</clipPath>
<clipPath id="clip1_468_191">
<rect width="46.7895" height="46" fill="white" transform="translate(61.7896 9.89746)"/>
</clipPath>
<clipPath id="clip2_468_191">
<rect width="45.7949" height="47.7949" fill="white" transform="translate(120.579 9)"/>
</clipPath>
<clipPath id="clip3_468_191">
<rect width="46.7895" height="46" fill="white" transform="translate(178.374 9.89746)"/>
</clipPath>
</defs>
</svg>
