<svg width="47" height="47" viewBox="0 0 47 47" fill="none" xmlns="http://www.w3.org/2000/svg">
<g clip-path="url(#clip0_468_192)">
<path d="M31.2632 0.897461H15.5263C7.50365 0.897461 1 7.40111 1 15.4238V32.3711C1 40.3938 7.50365 46.8975 15.5263 46.8975H31.2632C39.2858 46.8975 45.7895 40.3938 45.7895 32.3711V15.4238C45.7895 7.40111 39.2858 0.897461 31.2632 0.897461Z" fill="#FCA701"/>
<path d="M27.9063 25.2859L28.5102 21.2653H24.7336V18.6561C24.7336 17.5561 25.2612 16.4838 26.9526 16.4838H28.6696V13.0607C28.6696 13.0607 27.1115 12.7891 25.6218 12.7891C22.5116 12.7891 20.4788 14.7148 20.4788 18.2009V21.2653H17.0215V25.2859H20.4788V35.0057H24.7336V25.2859H27.9063Z" fill="white"/>
</g>
<defs>
<clipPath id="clip0_468_192">
<rect width="46.7895" height="46" fill="white" transform="translate(0 0.897461)"/>
</clipPath>
</defs>
</svg>
