<svg width="47" height="48" viewBox="0 0 47 48" fill="none" xmlns="http://www.w3.org/2000/svg">
<g clip-path="url(#clip0_468_200)">
<path d="M31.9124 1H15.0406C7.05375 1 0.579102 7.47465 0.579102 15.4615V32.3333C0.579102 40.3202 7.05375 46.7949 15.0406 46.7949H31.9124C39.8993 46.7949 46.374 40.3202 46.374 32.3333V15.4615C46.374 7.47465 39.8993 1 31.9124 1Z" fill="#FCA701"/>
<path d="M18.321 33.4131H14.3686V20.1292H18.321V33.4131ZM16.3426 18.3172C15.0788 18.3172 14.0537 17.2246 14.0537 15.9056C14.0537 15.272 14.2949 14.6643 14.7241 14.2164C15.1534 13.7683 15.7356 13.5166 16.3426 13.5166C16.9497 13.5166 17.5319 13.7683 17.9612 14.2164C18.3905 14.6643 18.6316 15.272 18.6316 15.9056C18.6316 17.2246 17.6061 18.3172 16.3426 18.3172ZM33.1134 33.4131H29.1695V26.9466C29.1695 25.4055 29.1397 23.4291 27.1146 23.4291C25.0597 23.4291 24.7448 25.1034 24.7448 26.8356V33.4131H20.7967V20.1292H24.5874V21.9412H24.6427C25.1704 20.8976 26.4593 19.7961 28.3822 19.7961C32.3823 19.7961 33.1176 22.5453 33.1176 26.1161V33.4131H33.1134Z" fill="white"/>
</g>
<defs>
<clipPath id="clip0_468_200">
<rect width="45.7949" height="47.7949" fill="white" transform="translate(0.579102)"/>
</clipPath>
</defs>
</svg>
