<svg width="48" height="47" viewBox="0 0 48 47" fill="none" xmlns="http://www.w3.org/2000/svg">
<g clip-path="url(#clip0_468_196)">
<path d="M32.0527 0.897461H16.3159C8.2932 0.897461 1.78955 7.40111 1.78955 15.4238V32.3711C1.78955 40.3938 8.2932 46.8975 16.3159 46.8975H32.0527C40.0754 46.8975 46.579 40.3938 46.579 32.3711V15.4238C46.579 7.40111 40.0754 0.897461 32.0527 0.897461Z" fill="#FCA701"/>
<path d="M33.0595 19.183C33.0731 19.3886 33.0731 19.5942 33.0731 19.7998C33.0731 26.0709 28.6122 33.2968 20.459 33.2968C17.9471 33.2968 15.6137 32.5183 13.6509 31.1672C14.0078 31.2113 14.3509 31.2259 14.7215 31.2259C16.794 31.2259 18.7021 30.477 20.2256 29.1993C18.2766 29.1551 16.6432 27.7893 16.0804 25.9094C16.3549 25.9535 16.6294 25.9828 16.9177 25.9828C17.3157 25.9828 17.7138 25.9241 18.0843 25.8213C16.0529 25.3807 14.5293 23.4714 14.5293 21.1656V21.1069C15.1195 21.4594 15.8058 21.6797 16.5333 21.709C15.3391 20.8572 14.5568 19.4032 14.5568 17.7584C14.5568 16.8772 14.7764 16.0694 15.1608 15.3644C17.3432 18.2431 20.6237 20.1229 24.3022 20.3285C24.2336 19.976 24.1924 19.6089 24.1924 19.2417C24.1924 16.6275 26.1689 14.498 28.6259 14.498C29.9024 14.498 31.0554 15.0707 31.8652 15.9961C32.8672 15.7904 33.8279 15.3938 34.6791 14.8504C34.3495 15.952 33.6496 16.8772 32.7299 17.4647C33.6222 17.3619 34.4868 17.0975 35.2829 16.7304C34.6791 17.6702 33.9241 18.5073 33.0595 19.183Z" fill="white"/>
</g>
<defs>
<clipPath id="clip0_468_196">
<rect width="46.7895" height="46" fill="white" transform="translate(0.789551 0.897461)"/>
</clipPath>
</defs>
</svg>
