<svg width="48" height="47" viewBox="0 0 48 47" fill="none" xmlns="http://www.w3.org/2000/svg">
<g clip-path="url(#clip0_468_204)">
<path d="M31.6372 0.897461H15.9003C7.87768 0.897461 1.37402 7.40111 1.37402 15.4238V32.3711C1.37402 40.3938 7.87768 46.8975 15.9003 46.8975H31.6372C39.6598 46.8975 46.1635 40.3938 46.1635 32.3711V15.4238C46.1635 7.40111 39.6598 0.897461 31.6372 0.897461Z" fill="#FCA701"/>
<path d="M35.2131 19.1036C34.9452 18.1038 34.1557 17.3163 33.1535 17.049C31.3367 16.5635 24.0518 16.5635 24.0518 16.5635C24.0518 16.5635 16.767 16.5635 14.9502 17.049C13.9479 17.3163 13.1585 18.1038 12.8906 19.1036C12.4038 20.916 12.4038 24.6975 12.4038 24.6975C12.4038 24.6975 12.4038 28.4788 12.8906 30.2912C13.1585 31.2912 13.9479 32.0459 14.9502 32.3131C16.767 32.7987 24.0518 32.7987 24.0518 32.7987C24.0518 32.7987 31.3367 32.7987 33.1535 32.3131C34.1557 32.0459 34.9452 31.2912 35.2131 30.2912C35.6999 28.4788 35.6999 24.6975 35.6999 24.6975C35.6999 24.6975 35.6999 20.916 35.2131 19.1036ZM21.6693 28.1307V21.2643L27.758 24.6976L21.6693 28.1307Z" fill="white"/>
</g>
<defs>
<clipPath id="clip0_468_204">
<rect width="46.7895" height="46" fill="white" transform="translate(0.374023 0.897461)"/>
</clipPath>
</defs>
</svg>
